<?xml version="1.0" encoding="UTF-8" standalone="no"?>
<!-- Created with Inkscape (http://www.inkscape.org/) -->

<svg
   xmlns:dc="http://purl.org/dc/elements/1.1/"
   xmlns:cc="http://creativecommons.org/ns#"
   xmlns:rdf="http://www.w3.org/1999/02/22-rdf-syntax-ns#"
   xmlns:svg="http://www.w3.org/2000/svg"
   xmlns="http://www.w3.org/2000/svg"
   xmlns:sodipodi="http://sodipodi.sourceforge.net/DTD/sodipodi-0.dtd"
   xmlns:inkscape="http://www.inkscape.org/namespaces/inkscape"
   width="128"
   height="128"
   id="svg2"
   version="1.1"
   inkscape:version="0.48.3.1 r9886"
   sodipodi:docname="app-icon-128.svg">
  <defs
     id="defs4" />
  <sodipodi:namedview
     id="base"
     pagecolor="#ffffff"
     bordercolor="#666666"
     borderopacity="1.0"
     inkscape:pageopacity="0.0"
     inkscape:pageshadow="2"
     inkscape:zoom="0.49497475"
     inkscape:cx="258.37048"
     inkscape:cy="506.50521"
     inkscape:document-units="px"
     inkscape:current-layer="layer1"
     showgrid="false"
     inkscape:window-width="1301"
     inkscape:window-height="744"
     inkscape:window-x="65"
     inkscape:window-y="24"
     inkscape:window-maximized="1" />
  <metadata
     id="metadata7">
    <rdf:RDF>
      <cc:Work
         rdf:about="">
        <dc:format>image/svg+xml</dc:format>
        <dc:type
           rdf:resource="http://purl.org/dc/dcmitype/StillImage" />
        <dc:title></dc:title>
      </cc:Work>
    </rdf:RDF>
  </metadata>
  <g
     inkscape:label="Layer 1"
     inkscape:groupmode="layer"
     id="layer1"
     transform="translate(0,-924.36218)">
    <g
       id="g3080"
       transform="matrix(0.61031602,0,0,0.61031602,-45.325743,806.16216)">
      <path
         sodipodi:nodetypes="csssssscssssssssssssssssssssscc"
         style="fill:#f65415"
         d="m 170.381,393.44143 c -6.23515,-1.27878 -10.10907,-1.33083 -21.5,-0.28889 -16.46831,1.50638 -30.51443,-4.40646 -45,-18.94314 -14.373889,-14.42461 -23.371779,-32.29321 -27.122219,-53.86105 -2.1634,-12.44124 -1.43215,-33.0431 1.56783,-44.17071 5.48179,-20.33325 17.26652,-36.03925 32.827789,-43.75095 8.50053,-4.2126 8.67765,-4.2513 20.65033,-4.51161 8.67191,-0.18855 11.9879,-0.59462 11.76278,-1.44046 -0.17241,-0.64784 -4.37826,-6.7297 -9.34631,-13.51525 -5.80967,-7.93504 -8.81824,-12.89656 -8.43145,-13.90453 0.78196,-2.03776 1.79388,-1.3724 21.47868,14.1228 8.38451,6.6 15.61473,12.13329 16.06714,12.29619 0.45241,0.1629 1.76378,-2.80256 2.91416,-6.58992 2.50005,-8.23086 5.4785,-12.44114 8.49666,-12.0107 1.56059,0.22256 3.27737,2.58047 6.38419,8.7683 2.33727,4.65513 4.96874,9.15513 5.8477,10 1.44042,1.38455 1.71181,1.3497 2.75041,-0.35319 6.45736,-10.58748 9.26322,-13.92007 14.01423,-16.64499 5.55645,-3.18687 12.63808,-4.07677 12.63808,-1.58814 0,0.75766 -0.70789,1.96506 -1.57309,2.68311 -3.38949,2.81303 -8.91103,18.78855 -7.11466,20.58492 0.34829,0.34829 3.26254,-0.10448 6.47611,-1.00616 8.38082,-2.35154 21.72328,-2.16207 29.37975,0.41721 18.08849,6.09357 32.78497,23.6564 38.86356,46.44337 2.9974,11.23641 3.74279,31.86647 1.59595,44.17071 -2.10939,12.08959 -7.4529,26.8009 -13.35598,36.77053 -6.8383,11.54911 -20.45077,24.96129 -30.27164,29.82622 -12.91921,6.39974 -23.19768,8.03165 -35.2905,5.60307 -4.19458,-0.8424 -6.77619,-0.83936 -10.15695,0.0119 -6.86947,1.72975 -18.39804,2.14358 -24.55255,0.88134 z"
         id="path3071"
         inkscape:connector-curvature="0" />
      <path
         sodipodi:nodetypes="sssscsssssssssssssssssssssssscssssssscsssssssssssssssssssssssssssccsssssssscs"
         style="fill:#53b217"
         d="m 169.88608,392.41136 c -4.96325,-1.15494 -7.04443,-1.17305 -21.10552,-0.18367 -11.20433,0.78837 -17.14758,-0.53872 -28.39448,-6.3403 -9.45277,-4.8761 -22.584903,-17.93529 -28.870113,-28.70975 -10.0769,-17.27439 -14.5954,-34.14257 -14.61675,-54.56634 -0.007,-6.91149 0.4598,-15.23649 1.03784,-18.5 4.65284,-26.26914 19.493,-46.37055 39.529743,-53.54413 4.44542,-1.59155 8.53371,-2.15547 16.41928,-2.2648 8.53323,-0.11831 10.44128,-0.41344 10.18651,-1.57562 -0.17241,-0.78651 -4.37826,-6.98183 -9.34631,-13.76738 -5.80967,-7.93504 -8.81824,-12.89656 -8.43145,-13.90453 0.78196,-2.03776 1.79388,-1.3724 21.47868,14.1228 8.38451,6.6 15.61473,12.13329 16.06714,12.29619 0.45241,0.1629 1.76378,-2.80256 2.91416,-6.58992 2.50005,-8.23086 5.4785,-12.44114 8.49666,-12.0107 1.56059,0.22256 3.27737,2.58047 6.38419,8.7683 2.33727,4.65513 4.96874,9.15513 5.8477,10 1.44042,1.38455 1.71181,1.3497 2.75041,-0.35319 6.45736,-10.58748 9.26322,-13.92007 14.01423,-16.64499 5.55645,-3.18687 12.63808,-4.07677 12.63808,-1.58814 0,0.75766 -0.70789,1.96506 -1.57309,2.68311 -3.74887,3.11129 -8.88573,18.88052 -6.82247,20.94378 0.58352,0.58352 2.67186,0.41571 5.52954,-0.44432 18.50091,-5.56796 35.69053,-0.97197 49.91004,13.34445 14.46407,14.56265 20.95598,32.74444 20.95598,58.69112 0,30.08068 -11.01597,56.58168 -31.05984,74.72034 -14.0063,12.67498 -33.12789,18.43533 -48.41688,14.58552 -3.46297,-0.87199 -5.81129,-0.76891 -11.39022,0.5 -7.83866,1.78286 -17.33704,1.9136 -24.13306,0.33217 z m 9.32768,-38.43718 c 2.06094,-1.04096 5.72215,-1.34406 13.50211,-1.11778 12.02401,0.34972 12.67995,0.0853 20.99747,-8.46404 3.22805,-3.31802 4.46615,-5.48334 4.87401,-8.52418 0.70997,-5.29327 -1.52818,-17.18689 -3.36703,-17.89252 -0.77488,-0.29735 -4.13246,0.22357 -7.4613,1.15759 -3.32884,0.93403 -6.29309,1.45757 -6.58723,1.16343 -0.29414,-0.29414 0.19625,-4.16289 1.08974,-8.59723 3.08861,-15.3284 2.52147,-17.01456 -5.73244,-17.0429 -3.82986,-0.0131 -8.62902,-0.89868 -12.74508,-2.3517 -6.37277,-2.24967 -6.64223,-2.2663 -7.75847,-0.47891 -1.52611,2.44368 -4.19322,2.36213 -4.84971,-0.1483 -0.58334,-2.23069 -2.41284,-2.53968 -5.44114,-0.91898 -3.5769,1.9143 -3.15002,0.19976 1.61162,-6.47309 4.91218,-6.88379 5.0608,-7.47023 3.70203,-14.60793 -1.09717,-5.76349 -2.21018,-9 -3.09502,-9 -0.38473,0 -2.01974,2.76311 -3.63337,6.14025 -1.61363,3.37714 -3.94637,6.80389 -5.18387,7.61501 -2.00532,1.31439 -2.53071,1.29083 -4.83139,-0.21664 -2.42594,-1.58953 -7.38737,-10.50755 -7.40884,-13.31714 -0.0161,-2.10574 -5.84262,-12.9955 -7.2265,-13.5063 -0.7058,-0.26052 -4.24091,-0.24444 -7.85581,0.0357 -3.98591,0.30893 -7.40817,0.0622 -8.69587,-0.62697 -5.01994,-2.6866 -19.60526,6.09553 -26.366913,15.87605 -3.6205,5.23693 -7.86468,15.50895 -7.86468,19.03454 0,0.90541 3.08593,5.59697 6.85762,10.42569 5.824213,7.45647 7.255813,10.10971 9.500003,17.60671 1.45331,4.85496 2.64238,9.9093 2.64238,11.23186 0,1.32257 2.06111,5.50888 4.58025,9.30293 2.51915,3.79405 4.98301,7.91077 5.47526,9.14827 0.52431,1.31812 1.75035,2.25 2.96023,2.25 1.13589,0 3.31266,0.92225 4.83728,2.04945 1.56273,1.15538 5.49599,2.43449 9.01605,2.93204 4.15187,0.58687 7.84597,1.91056 11.02502,3.95055 2.62955,1.68738 5.47744,3.06796 6.32865,3.06796 0.8512,0 3.0618,0.65794 4.91245,1.46209 4.07704,1.77156 17.80494,1.05058 22.19249,-1.16555 z m 7.55044,-93.20005 c 1.61343,-1.02193 0.65059,-3.09649 -1.43714,-3.09649 -0.79254,0 -1.44098,0.9 -1.44098,2 0,2.17109 0.73777,2.45216 2.87812,1.09649 z m 44.78571,-8.84649 c 1.08934,-4.26779 0.6155,-6.59686 -1.72929,-8.5 -3.70775,-3.00938 -8.08014,-2.217 -14.7139,2.66649 -10.32238,7.5989 -9.76956,8.58351 4.81932,8.58351 l 10.92194,0 z"
         id="path3069"
         inkscape:connector-curvature="0" />
      <path
         style="fill:#e51c02"
         d="m 169.381,392.41137 c -4.96325,-1.15494 -7.04443,-1.17305 -21.10552,-0.18367 -11.20433,0.78837 -17.14758,-0.53872 -28.39448,-6.3403 -9.45277,-4.8761 -22.5849,-17.93529 -28.87011,-28.70975 -10.0769,-17.27439 -14.5954,-34.14257 -14.61675,-54.56634 -0.007,-6.91149 0.4598,-15.23649 1.03784,-18.5 4.65123,-26.26007 19.43871,-46.29837 39.52974,-53.56616 4.75249,-1.71918 8.13685,-2.13631 17.16928,-2.11614 7.76992,0.0173 11.24403,-0.32699 11.2307,-1.11313 -0.0106,-0.62602 -4.28561,-6.9828 -9.5,-14.12617 -5.21438,-7.14337 -9.4807,-13.10587 -9.4807,-13.25 0,-1.33729 4.29128,1.66566 19.00145,13.29685 9.43151,7.45741 17.87276,13.41938 18.75833,13.24884 0.99736,-0.19208 2.09509,-2.21115 2.88443,-5.30537 2.71443,-10.64056 6.08492,-15.20182 9.04551,-12.24123 0.73405,0.73405 3.24166,5.13809 5.57246,9.78674 5.21743,10.4059 7.46467,11.39678 10.80609,4.76481 4.99958,-9.92304 13.3682,-16.8127 20.42177,-16.8127 l 2.85859,0 -2.04935,2.25 c -3.85001,4.22696 -7.26856,13.42784 -7.28846,19.61658 -0.01,2.98366 0.2451,3.30631 2.23918,2.83673 15.6243,-3.67934 18.15998,-3.9569 26.00842,-2.84699 11.65237,1.64786 19.60536,5.80544 28.7856,15.04825 14.46407,14.56265 20.95598,32.74444 20.95598,58.69112 0,30.08068 -11.01597,56.58168 -31.05984,74.72034 -14.0063,12.67498 -33.12789,18.43533 -48.41688,14.58552 -3.46297,-0.87199 -5.81129,-0.76891 -11.39022,0.5 -7.83866,1.78286 -17.33704,1.9136 -24.13306,0.33217 z m 9.32768,-38.43718 c 2.06094,-1.04096 5.72215,-1.34406 13.50211,-1.11778 12.02401,0.34972 12.67995,0.0853 20.99747,-8.46404 3.22805,-3.31802 4.46615,-5.48334 4.87401,-8.52418 0.70997,-5.29327 -1.52818,-17.18689 -3.36703,-17.89252 -0.77488,-0.29735 -4.13246,0.22357 -7.4613,1.15759 -3.32884,0.93403 -6.29309,1.45757 -6.58723,1.16343 -0.29414,-0.29414 0.19625,-4.16289 1.08974,-8.59723 3.08861,-15.3284 2.52147,-17.01456 -5.73244,-17.0429 -3.82986,-0.0131 -8.62902,-0.89868 -12.74508,-2.3517 -6.37277,-2.24967 -6.64223,-2.2663 -7.75847,-0.47891 -1.52611,2.44368 -4.19322,2.36213 -4.84971,-0.1483 -0.58334,-2.23069 -2.41284,-2.53968 -5.44114,-0.91898 -3.5769,1.9143 -3.15002,0.19976 1.61162,-6.47309 4.91218,-6.88379 5.0608,-7.47023 3.70203,-14.60793 -1.09717,-5.76349 -2.21018,-9 -3.09502,-9 -0.38473,0 -2.01974,2.76311 -3.63337,6.14025 -1.61363,3.37714 -3.94637,6.80389 -5.18387,7.61501 -2.00532,1.31439 -2.53071,1.29083 -4.83139,-0.21664 -2.42594,-1.58953 -7.38737,-10.50755 -7.40884,-13.31714 -0.0161,-2.10574 -5.84262,-12.9955 -7.2265,-13.5063 -0.7058,-0.26052 -4.24091,-0.24444 -7.85581,0.0357 -3.98591,0.30893 -7.40817,0.0622 -8.69587,-0.62697 -5.01994,-2.6866 -19.60526,6.09553 -26.36691,15.87605 -3.6205,5.23693 -7.86468,15.50895 -7.86468,19.03454 0,0.90541 3.08593,5.59697 6.85762,10.42569 5.82421,7.45647 7.25581,10.10971 9.5,17.60671 1.45331,4.85496 2.64238,9.9093 2.64238,11.23186 0,1.32257 2.06111,5.50888 4.58025,9.30293 2.51915,3.79405 4.98301,7.91077 5.47526,9.14827 0.52431,1.31812 1.75035,2.25 2.96023,2.25 1.13589,0 3.31266,0.92225 4.83728,2.04945 1.56273,1.15538 5.49599,2.43449 9.01605,2.93204 4.15187,0.58687 7.84597,1.91056 11.02502,3.95055 2.62955,1.68738 5.47744,3.06796 6.32865,3.06796 0.8512,0 3.0618,0.65794 4.91245,1.46209 4.07704,1.77156 17.80494,1.05058 22.19249,-1.16555 z m 0.60581,-99.7765 c 2.23658,-4.66398 4.06651,-8.86054 4.06651,-9.32569 0,-0.46515 -1.10738,-1.88606 -2.46085,-3.15757 -2.22884,-2.09389 -2.751,-2.19167 -5.53822,-1.03717 -4.43003,1.83498 -5.00772,3.61611 -3.40568,10.50039 0.76794,3.3 1.63174,7.2375 1.91955,8.75 0.28782,1.5125 0.7098,2.75 0.93774,2.75 0.22794,0 2.24436,-3.81598 4.48095,-8.47996 z m 6.94463,6.57645 c 1.61343,-1.02193 0.65059,-3.09649 -1.43714,-3.09649 -0.79254,0 -1.44098,0.9 -1.44098,2 0,2.17109 0.73777,2.45216 2.87812,1.09649 z m -29.28633,-6.74859 c 2.96991,-1.94596 8.40821,-9.54108 8.40821,-11.74289 0,-1.50287 -2.85696,-3.60501 -4.89946,-3.60501 -0.56702,0 -2.56851,1.35 -4.44776,3 -3.78042,3.31925 -5.65278,3.80085 -5.65278,1.45399 0,-0.88842 -2.23305,-2.58414 -5.25,-3.98671 -4.46483,-2.07568 -5.30011,-2.20923 -5.58508,-0.89297 -0.44807,2.06965 5.62302,12.02867 9.1618,15.02904 3.33811,2.83023 4.87115,2.96833 8.26507,0.74455 z m 74.07204,-2.0979 c 1.08934,-4.26779 0.6155,-6.59686 -1.72929,-8.5 -3.70775,-3.00938 -8.08014,-2.217 -14.7139,2.66649 -10.32238,7.5989 -9.76956,8.58351 4.81932,8.58351 l 10.92194,0 0.70193,-2.75 z M 195.881,240.03283 c 6.47031,-2.31843 7.0411,-3.16976 8.8773,-13.24043 0.94117,-5.16188 2.3663,-10.65204 3.16696,-12.20034 2.98368,-5.7698 0.96176,-6.51239 -5.32736,-1.95657 -4.99089,3.61538 -8.90424,10.0804 -11.43691,18.89428 -3.32451,11.5695 -3.32528,11.57653 -1.17787,10.70584 1.04384,-0.42323 3.69788,-1.41448 5.89788,-2.20278 z m -23.00127,-1.53655 c 3.13611,-1.42891 3.10026,-5.1614 -0.0539,-5.61265 -2.51125,-0.35927 -5.90828,3.14391 -5.0975,5.25677 0.70854,1.84642 1.72577,1.91669 5.1514,0.35588 z m 11.99609,-0.81025 c 0.88343,-1.42942 -4.0316,-6.00838 -6.44937,-6.00838 -3.12251,0 -2.45421,2.78017 1.20455,5.01096 3.69907,2.25537 4.38656,2.38611 5.24482,0.99742 z m -21.60808,-3.50378 c 0.76271,-0.74224 1.12245,-2.03827 0.79942,-2.88008 -0.59821,-1.5589 -19.03684,-16.67147 -22.79383,-18.68215 -3.6544,-1.95577 -3.36467,-0.0398 0.88123,5.8275 2.28064,3.15157 6.07015,8.57291 8.42113,12.04741 4.16087,6.14933 4.36797,6.30026 7.78991,5.67706 1.93347,-0.35213 4.13943,-1.24751 4.90214,-1.98974 z m 16.32747,-14.7546 c -2.53641,-5.07431 -4.99395,-8.75 -5.85019,-8.75 -1.85031,0 -5.1804,7.38124 -5.98785,13.27222 l -0.61042,4.45346 8.41109,-0.11284 8.41109,-0.11284 -4.37372,-8.75 z"
         id="path3067"
         inkscape:connector-curvature="0" />
    </g>
    <text
       xml:space="preserve"
       style="font-size:24.41264153px;font-style:normal;font-weight:normal;line-height:125%;letter-spacing:0px;word-spacing:0px;fill:#000000;fill-opacity:1;stroke:none;font-family:Sans"
       x="25.264908"
       y="1004.855"
       id="text3085"
       sodipodi:linespacing="125%"><tspan
         sodipodi:role="line"
         id="tspan3087"
         x="25.264908"
         y="1004.855"
         style="letter-spacing:10.05189323px;word-spacing:3.87550759px">GPD</tspan></text>
  </g>
</svg>
