<?xml version="1.0" encoding="utf-8"?>
<svg contentScriptType="text/ecmascript" xmlns:xlink="http://www.w3.org/1999/xlink" zoomAndPan="magnify" contentStyleType="text/css" viewBox="256.0 20.0 669.9999999999999 510.0000000000001" xmlns:cacoo="http://cacoo.com/" preserveAspectRatio="xMidYMin meet" xmlns="http://www.w3.org/2000/svg" version="1.1"><defs><radialGradient xmlns:xlink="http://www.w3.org/1999/xlink" xlink:type="simple" r="75%" xlink:actuate="onLoad" cx="50%" id="id1" cy="50%" xlink:show="other"><stop stop-opacity="1.0" stop-color="#ea6b66" offset="0%"/><stop stop-opacity="1.0" stop-color="#dc0800" offset="100%"/></radialGradient><radialGradient xmlns:xlink="http://www.w3.org/1999/xlink" xlink:type="simple" r="75%" xlink:actuate="onLoad" cx="50%" id="id5" cy="50%" xlink:show="other"><stop stop-opacity="1.0" stop-color="#ffffff" offset="0%"/><stop stop-opacity="1.0" stop-color="#ffb570" offset="100%"/></radialGradient><radialGradient xmlns:xlink="http://www.w3.org/1999/xlink" xlink:type="simple" r="75%" xlink:actuate="onLoad" cx="50%" id="id7" cy="50%" xlink:show="other"><stop stop-opacity="1.0" stop-color="#ffffff" offset="0%"/><stop stop-opacity="1.0" stop-color="#ffb570" offset="100%"/></radialGradient><radialGradient xmlns:xlink="http://www.w3.org/1999/xlink" xlink:type="simple" r="75%" xlink:actuate="onLoad" cx="50%" id="id10" cy="50%" xlink:show="other"><stop stop-opacity="1.0" stop-color="#ffffff" offset="0%"/><stop stop-opacity="1.0" stop-color="#97d077" offset="100%"/></radialGradient></defs><g><g transform="translate(271.0 35.0)"><path fill="#ffffff" fill-opacity="1.0" d="M639.9999999999999 480.0000000000001 L0.0 480.0000000000001 L0.0 0.0 L639.9999999999999 0.0 L639.9999999999999 480.0000000000001z" stroke-width="1.0" stroke-linejoin="round" stroke="#000000"/><g transform="translate(1.0 1.0)"><clipPath id="id0"><path d="M0 0 L638.0 0 L638.0 478.0 L0 478.0z"/></clipPath><text font-size="12" clip-path="url(#id0)" text-decoration="none" fill="#000000" font-family="Arial,Arial" font-style="normal" font-weight="normal"/></g></g><g transform="translate(449.0 136.0)"><path fill="url(#id1)" d="M283.9999999999999 35.0 Q283.9999999999999 50.0 268.9999999999999 50.0 L15.0 50.0 Q0.0 50.0 0.0 35.0 L0.0 15.0 Q0.0 0.0 15.0 0.0 L268.9999999999999 0.0 Q283.9999999999999 0.0 283.9999999999999 15.0 L283.9999999999999 35.0 L283.9999999999999 35.0z" stroke-width="1.0" stroke-linejoin="round" stroke="#dc0800"/><g transform="translate(1.0 1.0)"><clipPath id="id2"><path d="M0 0 L282.0 0 L282.0 48.0 L0 48.0z"/></clipPath><text font-size="12" clip-path="url(#id2)" text-decoration="none" fill="#ffffff" font-family="Arial,Arial" font-style="normal" font-weight="normal"><tspan x="74.0" xml:space="preserve" y="28.0" textLength="133.0">Getting Pomodoro Done</tspan></text></g></g><g transform="translate(381.0 261.0)"><path fill="#ffffff" fill-opacity="1.0" d="M420.0000000000006 24.0 L0.0 24.0 L0.0 0.0 L420.0000000000006 0.0 L420.0000000000006 24.0z" stroke-width="1.0" stroke-linejoin="round" stroke="#000000"/><g transform="translate(1.0 1.0)"><clipPath id="id3"><path d="M0 0 L418.0 0 L418.0 22.0 L0 22.0z"/></clipPath><text font-size="12" clip-path="url(#id3)" text-decoration="none" fill="#000000" font-family="Arial,Arial" font-style="normal" font-weight="normal"/></g></g><g transform="translate(755.0 244.0)"><clipPath id="id4"><path d="M0 0 L46.0 0 L46.0 17.0 L0 17.0z"/></clipPath><text font-size="12" clip-path="url(#id4)" text-decoration="none" fill="#000000" font-family="Arial,Arial" font-style="normal" font-weight="normal"><tspan x="12.0" xml:space="preserve" y="13.0" textLength="31.0">22:35</tspan></text></g><g transform="translate(778.0 328.0)"><path fill="url(#id5)" d="M24.0 24.0 L0.0 24.0 L0.0 0.0 L24.0 0.0 L24.0 24.0z" stroke-width="1.0" stroke-linejoin="round" stroke="#ff9d40"/><g transform="translate(1.0 1.0)"><clipPath id="id6"><path d="M0 0 L22.0 0 L22.0 22.0 L0 22.0z"/></clipPath><text font-size="12" clip-path="url(#id6)" text-decoration="none" fill="#000000" font-family="Arial,Arial" font-style="normal" font-weight="normal"/></g></g><g transform="translate(743.0 328.0)"><path fill="url(#id7)" d="M24.0 24.0 L0.0 24.0 L0.0 0.0 L24.0 0.0 L24.0 24.0z" stroke-width="1.0" stroke-linejoin="round" stroke="#ff9d40"/><g transform="translate(1.0 1.0)"><clipPath id="id8"><path d="M0 0 L22.0 0 L22.0 22.0 L0 22.0z"/></clipPath><text font-size="12" clip-path="url(#id8)" text-decoration="none" fill="#000000" font-family="Arial,Arial" font-style="normal" font-weight="normal"/></g></g><g transform="translate(381.0 244.0)"><clipPath id="id9"><path d="M0 0 L92.0 0 L92.0 17.0 L0 17.0z"/></clipPath><text font-size="12" clip-path="url(#id9)" text-decoration="none" fill="#000000" font-family="Arial,Arial" font-style="normal" font-weight="normal"><tspan x="2.0" xml:space="preserve" y="13.0" textLength="74.0">Pomodoro : 3</tspan></text></g><g transform="translate(381.0 261.0)"><path fill="url(#id10)" d="M104.00000000000024 24.0 L0.0 24.0 L0.0 0.0 L104.00000000000024 0.0 L104.00000000000024 24.0z" stroke-width="1.0" stroke-linejoin="round" stroke="#74c14a"/><g transform="translate(1.0 1.0)"><clipPath id="id11"><path d="M0 0 L102.0 0 L102.0 22.0 L0 22.0z"/></clipPath><text font-size="12" clip-path="url(#id11)" text-decoration="none" fill="#000000" font-family="Arial,Arial" font-style="normal" font-weight="normal"/></g></g><g transform="translate(381.0 294.0)"><path fill="#ffffff" fill-opacity="1.0" d="M420.0000000000006 24.0 L0.0 24.0 L0.0 0.0 L420.0000000000006 0.0 L420.0000000000006 24.0z" stroke-width="1.0" stroke-linejoin="round" stroke="#000000"/><g transform="translate(1.0 1.0)"><clipPath id="id12"><path d="M0 0 L418.0 0 L418.0 22.0 L0 22.0z"/></clipPath><text font-size="12" clip-path="url(#id12)" text-decoration="none" fill="#000000" font-family="Arial,Arial" font-style="normal" font-weight="normal"/></g></g></g></svg>